<svg xmlns="http://www.w3.org/2000/svg" width="24" height="24" viewBox="0 0 24 24" fill="none">
    <path d="M12 2C6.477 2 2 6.477 2 12s4.477 10 10 10 10-4.477 10-10S17.523 2 12 2zM12 20a8 8 0 1 1 0-16 8 8 0 0 1 0 16zm-2.293-5.293a1 1 0 0 1 0-1.414L7.88 12.38a1 1 0 0 1 1.415-1.415l.293.293.293-.293a1 1 0 0 1 1.414 1.415l-2 2a1 1 0 0 1-1.415 0z" fill="#637381" />
    <path d="M16.1602 8.9801H18.6602V15.0201H16.1602V8.9801Z" fill="#637381" />
    <path d="M7.83984 8.9801H9.83984V15.0201H7.83984V8.9801Z" fill="#637381" />
  </svg>
