<svg width="350" height="220" viewBox="0 0 350 220" fill="none" xmlns="http://www.w3.org/2000/svg">
    <rect width="350" height="220" rx="12" fill="url(#paint0_linear_17_123)" />
    <mask id="mask0_17_123" style="mask-type:alpha" maskUnits="userSpaceOnUse" x="0" y="0"
        width="350" height="220">
        <rect width="350" height="220" rx="12" fill="url(#paint1_linear_17_123)" />
    </mask>
    <g mask="url(#mask0_17_123)">
        <circle cx="181.5" cy="146.5" r="75.5" fill="url(#paint2_linear_17_123)" fill-opacity="0.5" />
    </g>
    <mask id="mask1_17_123" style="mask-type:alpha" maskUnits="userSpaceOnUse" x="0" y="0"
        width="350" height="220">
        <rect width="350" height="220" rx="12" fill="url(#paint3_linear_17_123)" />
    </mask>
    <g mask="url(#mask1_17_123)">
        <circle cx="108.478" cy="114.478" r="51.5" transform="rotate(-25.0881 108.478 114.478)"
            fill="url(#paint4_linear_17_123)" fill-opacity="0.5" />
    </g>
    <mask id="mask2_17_123" style="mask-type:alpha" maskUnits="userSpaceOnUse" x="0" y="0"
        width="350" height="220">
        <rect width="350" height="220" rx="12" fill="url(#paint5_linear_17_123)" />
    </mask>
    <g mask="url(#mask2_17_123)">
        <circle cx="125.239" cy="137.239" r="43.3494" transform="rotate(-175.524 125.239 137.239)"
            fill="url(#paint6_linear_17_123)" fill-opacity="0.5" />
    </g>
    <mask id="mask3_17_123" style="mask-type:alpha" maskUnits="userSpaceOnUse" x="0" y="0"
        width="350" height="220">
        <rect width="350" height="220" rx="12" fill="url(#paint7_linear_17_123)" />
    </mask>
    <g mask="url(#mask3_17_123)">
        <circle cx="75" cy="146" r="74" transform="rotate(-140.12 75 146)"
            fill="url(#paint8_linear_17_123)" fill-opacity="0.5" />
    </g>
    <path
        d="M22.764 37.168C21.5 37.168 20.456 36.748 19.632 35.908C18.808 35.068 18.396 34.032 18.396 32.8C18.396 31.56 18.808 30.524 19.632 29.692C20.456 28.852 21.5 28.432 22.764 28.432C23.524 28.432 24.224 28.612 24.864 28.972C25.512 29.324 26.016 29.804 26.376 30.412L24.948 31.24C24.74 30.864 24.444 30.572 24.06 30.364C23.676 30.148 23.244 30.04 22.764 30.04C21.948 30.04 21.288 30.296 20.784 30.808C20.288 31.32 20.04 31.984 20.04 32.8C20.04 33.608 20.288 34.268 20.784 34.78C21.288 35.292 21.948 35.548 22.764 35.548C23.244 35.548 23.676 35.444 24.06 35.236C24.452 35.02 24.748 34.728 24.948 34.36L26.376 35.188C26.016 35.796 25.516 36.28 24.876 36.64C24.236 36.992 23.532 37.168 22.764 37.168ZM28.963 32.032C29.107 31.648 29.343 31.36 29.671 31.168C30.007 30.976 30.379 30.88 30.787 30.88V32.608C30.315 32.552 29.891 32.648 29.515 32.896C29.147 33.144 28.963 33.556 28.963 34.132V37H27.415V31H28.963V32.032ZM32.7777 34.636C32.9857 35.388 33.5497 35.764 34.4697 35.764C35.0617 35.764 35.5097 35.564 35.8137 35.164L37.0617 35.884C36.4697 36.74 35.5977 37.168 34.4457 37.168C33.4537 37.168 32.6577 36.868 32.0577 36.268C31.4577 35.668 31.1577 34.912 31.1577 34C31.1577 33.096 31.4537 32.344 32.0457 31.744C32.6377 31.136 33.3977 30.832 34.3257 30.832C35.2057 30.832 35.9297 31.136 36.4977 31.744C37.0737 32.352 37.3617 33.104 37.3617 34C37.3617 34.2 37.3417 34.412 37.3017 34.636H32.7777ZM32.7537 33.436H35.8137C35.7257 33.028 35.5417 32.724 35.2617 32.524C34.9897 32.324 34.6777 32.224 34.3257 32.224C33.9097 32.224 33.5657 32.332 33.2937 32.548C33.0217 32.756 32.8417 33.052 32.7537 33.436ZM42.9435 28.6H44.4915V37H42.9435V36.292C42.4875 36.876 41.8395 37.168 40.9995 37.168C40.1915 37.168 39.4995 36.864 38.9235 36.256C38.3555 35.64 38.0715 34.888 38.0715 34C38.0715 33.112 38.3555 32.364 38.9235 31.756C39.4995 31.14 40.1915 30.832 40.9995 30.832C41.8395 30.832 42.4875 31.124 42.9435 31.708V28.6ZM40.0875 35.224C40.4075 35.536 40.8075 35.692 41.2875 35.692C41.7675 35.692 42.1635 35.536 42.4755 35.224C42.7875 34.904 42.9435 34.496 42.9435 34C42.9435 33.504 42.7875 33.1 42.4755 32.788C42.1635 32.468 41.7675 32.308 41.2875 32.308C40.8075 32.308 40.4075 32.468 40.0875 32.788C39.7755 33.1 39.6195 33.504 39.6195 34C39.6195 34.496 39.7755 34.904 40.0875 35.224ZM46.6752 30.28C46.4192 30.28 46.1952 30.188 46.0032 30.004C45.8192 29.812 45.7272 29.588 45.7272 29.332C45.7272 29.076 45.8192 28.852 46.0032 28.66C46.1952 28.468 46.4192 28.372 46.6752 28.372C46.9392 28.372 47.1632 28.468 47.3472 28.66C47.5392 28.852 47.6352 29.076 47.6352 29.332C47.6352 29.588 47.5392 29.812 47.3472 30.004C47.1632 30.188 46.9392 30.28 46.6752 30.28ZM45.9072 37V31H47.4552V37H45.9072ZM52.3041 32.488H50.9481V34.984C50.9481 35.192 51.0001 35.344 51.1041 35.44C51.2081 35.536 51.3601 35.592 51.5601 35.608C51.7601 35.616 52.0081 35.612 52.3041 35.596V37C51.2401 37.12 50.4881 37.02 50.0481 36.7C49.6161 36.38 49.4001 35.808 49.4001 34.984V32.488H48.3561V31H49.4001V29.788L50.9481 29.32V31H52.3041V32.488ZM60.5453 37.168C59.2813 37.168 58.2373 36.748 57.4133 35.908C56.5893 35.068 56.1772 34.032 56.1772 32.8C56.1772 31.56 56.5893 30.524 57.4133 29.692C58.2373 28.852 59.2813 28.432 60.5453 28.432C61.3053 28.432 62.0053 28.612 62.6453 28.972C63.2933 29.324 63.7973 29.804 64.1573 30.412L62.7293 31.24C62.5213 30.864 62.2253 30.572 61.8412 30.364C61.4573 30.148 61.0253 30.04 60.5453 30.04C59.7293 30.04 59.0693 30.296 58.5653 30.808C58.0693 31.32 57.8213 31.984 57.8213 32.8C57.8213 33.608 58.0693 34.268 58.5653 34.78C59.0693 35.292 59.7293 35.548 60.5453 35.548C61.0253 35.548 61.4573 35.444 61.8412 35.236C62.2333 35.02 62.5293 34.728 62.7293 34.36L64.1573 35.188C63.7973 35.796 63.2973 36.28 62.6573 36.64C62.0173 36.992 61.3133 37.168 60.5453 37.168ZM69.6977 31H71.2457V37H69.6977V36.292C69.2337 36.876 68.5817 37.168 67.7417 37.168C66.9417 37.168 66.2537 36.864 65.6777 36.256C65.1097 35.64 64.8257 34.888 64.8257 34C64.8257 33.112 65.1097 32.364 65.6777 31.756C66.2537 31.14 66.9417 30.832 67.7417 30.832C68.5817 30.832 69.2337 31.124 69.6977 31.708V31ZM66.8417 35.224C67.1537 35.536 67.5497 35.692 68.0297 35.692C68.5097 35.692 68.9057 35.536 69.2177 35.224C69.5377 34.904 69.6977 34.496 69.6977 34C69.6977 33.504 69.5377 33.1 69.2177 32.788C68.9057 32.468 68.5097 32.308 68.0297 32.308C67.5497 32.308 67.1537 32.468 66.8417 32.788C66.5297 33.1 66.3737 33.504 66.3737 34C66.3737 34.496 66.5297 34.904 66.8417 35.224ZM74.1974 32.032C74.3414 31.648 74.5774 31.36 74.9054 31.168C75.2414 30.976 75.6134 30.88 76.0214 30.88V32.608C75.5494 32.552 75.1254 32.648 74.7494 32.896C74.3814 33.144 74.1974 33.556 74.1974 34.132V37H72.6494V31H74.1974V32.032ZM81.2521 28.6H82.8001V37H81.2521V36.292C80.7961 36.876 80.1481 37.168 79.3081 37.168C78.5001 37.168 77.8081 36.864 77.2321 36.256C76.6641 35.64 76.3801 34.888 76.3801 34C76.3801 33.112 76.6641 32.364 77.2321 31.756C77.8081 31.14 78.5001 30.832 79.3081 30.832C80.1481 30.832 80.7961 31.124 81.2521 31.708V28.6ZM78.3961 35.224C78.7161 35.536 79.1161 35.692 79.5961 35.692C80.0761 35.692 80.4721 35.536 80.7841 35.224C81.0961 34.904 81.2521 34.496 81.2521 34C81.2521 33.504 81.0961 33.1 80.7841 32.788C80.4721 32.468 80.0761 32.308 79.5961 32.308C79.1161 32.308 78.7161 32.468 78.3961 32.788C78.0841 33.1 77.9281 33.504 77.9281 34C77.9281 34.496 78.0841 34.904 78.3961 35.224Z"
        fill="white" />
    <g clip-path="url(#clip0_17_123)">
        <path fill-rule="evenodd" clip-rule="evenodd"
            d="M300.053 53.1041H313.435V29.2444H300.053V53.1041Z" fill="#FF5F00" />
        <path fill-rule="evenodd" clip-rule="evenodd"
            d="M300.903 41.1742C300.903 36.3336 303.187 32.0225 306.744 29.2443C304.143 27.2122 300.86 26 297.293 26C288.847 26 282 32.7938 282 41.1742C282 49.5545 288.847 56.3484 297.293 56.3484C300.86 56.3484 304.143 55.1361 306.744 53.104C303.187 50.3255 300.903 46.0147 300.903 41.1742Z"
            fill="#EB001B" />
        <path fill-rule="evenodd" clip-rule="evenodd"
            d="M331.011 50.577V49.9882H330.856L330.678 50.3932L330.499 49.9882H330.344V50.577H330.454V50.1327L330.621 50.5159H330.734L330.902 50.1319V50.577H331.011ZM330.029 50.577V50.0885H330.228V49.989H329.722V50.0885H329.921V50.577H330.029ZM331.488 41.1741C331.488 49.5544 324.641 56.3482 316.196 56.3482C312.628 56.3482 309.345 55.136 306.744 53.1039C310.301 50.3258 312.586 46.0146 312.586 41.1741C312.586 36.3339 310.301 32.0228 306.744 29.2442C309.345 27.2121 312.628 25.9999 316.196 25.9999C324.641 25.9999 331.488 32.7937 331.488 41.1741Z"
            fill="#F79E1B" />
    </g>
    <defs>
        <linearGradient id="paint0_linear_17_123" x1="5.21541e-06" y1="220" x2="350"
            y2="-3.82689e-06" gradientUnits="userSpaceOnUse">
            <stop stop-color="#0968E5" />
            <stop offset="0.492708" stop-color="#0941AB" />
            <stop offset="1" stop-color="#091970" />
        </linearGradient>
        <linearGradient id="paint1_linear_17_123" x1="5.21541e-06" y1="220" x2="350"
            y2="-3.82689e-06" gradientUnits="userSpaceOnUse">
            <stop stop-color="#0968E5" />
            <stop offset="0.492708" stop-color="#0941AB" />
            <stop offset="1" stop-color="#091970" />
        </linearGradient>
        <linearGradient id="paint2_linear_17_123" x1="231.833" y1="85.6318" x2="156.333"
            y2="147.085" gradientUnits="userSpaceOnUse">
            <stop stop-color="white" />
            <stop offset="1" stop-color="white" stop-opacity="0" />
        </linearGradient>
        <linearGradient id="paint3_linear_17_123" x1="5.21541e-06" y1="220" x2="350"
            y2="-3.82689e-06" gradientUnits="userSpaceOnUse">
            <stop stop-color="#0968E5" />
            <stop offset="0.492708" stop-color="#0941AB" />
            <stop offset="1" stop-color="#091970" />
        </linearGradient>
        <linearGradient id="paint4_linear_17_123" x1="85.4779" y1="62.9779" x2="108.978"
            y2="121.478" gradientUnits="userSpaceOnUse">
            <stop stop-color="white" />
            <stop offset="1" stop-color="white" stop-opacity="0" />
        </linearGradient>
        <linearGradient id="paint5_linear_17_123" x1="5.21541e-06" y1="220" x2="350"
            y2="-3.82689e-06" gradientUnits="userSpaceOnUse">
            <stop stop-color="#0968E5" />
            <stop offset="0.492708" stop-color="#0941AB" />
            <stop offset="1" stop-color="#091970" />
        </linearGradient>
        <linearGradient id="paint6_linear_17_123" x1="125.239" y1="93.8896" x2="122.797"
            y2="145.787" gradientUnits="userSpaceOnUse">
            <stop stop-color="white" />
            <stop offset="1" stop-color="white" stop-opacity="0" />
        </linearGradient>
        <linearGradient id="paint7_linear_17_123" x1="5.21541e-06" y1="220" x2="350"
            y2="-3.82689e-06" gradientUnits="userSpaceOnUse">
            <stop stop-color="#0968E5" />
            <stop offset="0.492708" stop-color="#0941AB" />
            <stop offset="1" stop-color="#091970" />
        </linearGradient>
        <linearGradient id="paint8_linear_17_123" x1="75" y1="72" x2="68.2147" y2="146.457"
            gradientUnits="userSpaceOnUse">
            <stop stop-color="white" />
            <stop offset="1" stop-color="white" stop-opacity="0" />
        </linearGradient>
        <clipPath id="clip0_17_123">
            <rect width="50" height="30.3922" fill="white" transform="translate(282 26)" />
        </clipPath>
    </defs>
</svg>
