<svg width="58" height="58" viewBox="0 0 58 58" fill="none" xmlns="http://www.w3.org/2000/svg">
    <path
        d="M56.8332 54.2116L44.9013 42.2796C49.1149 37.2616 51.2288 30.8106 50.802 24.2719C50.3753 17.7333 47.4408 11.6117 42.6107 7.18393C37.7805 2.75612 31.4274 0.36385 24.8764 0.50599C18.3254 0.648129 12.0821 3.31371 7.44854 7.94686C2.81496 12.58 0.148795 18.823 0.00604168 25.374C-0.136712 31.9251 2.25497 38.2783 6.68232 43.1089C11.1097 47.9395 17.2309 50.8745 23.7695 51.3019C30.3081 51.7293 36.7593 49.616 41.7778 45.4028L53.7098 57.3348C54.1239 57.749 54.6857 57.9817 55.2714 57.9817C55.8571 57.9817 56.4189 57.7491 56.8331 57.3349C57.2473 56.9207 57.48 56.359 57.48 55.7733C57.48 55.1876 57.2474 54.6258 56.8332 54.2116ZM4.47874 25.9588C4.47874 21.8093 5.70921 17.753 8.01455 14.3028C10.3199 10.8526 13.5966 8.16351 17.4302 6.57557C21.2639 4.98762 25.4823 4.57214 29.5521 5.38167C33.6219 6.1912 37.3602 8.18937 40.2943 11.1235C43.2285 14.0577 45.2267 17.796 46.0362 21.8658C46.8457 25.9355 46.4302 30.154 44.8423 33.9876C43.2543 37.8213 40.5652 41.098 37.1151 43.4033C33.6649 45.7086 29.6085 46.9391 25.459 46.9391C19.8966 46.9328 14.5639 44.7204 10.6307 40.7872C6.69747 36.854 4.48503 31.5212 4.47874 25.9588Z"
        fill="white" />
</svg>
